<?xml version="1.0" encoding="utf-8"?>
<!DOCTYPE svg PUBLIC "-//W3C//DTD SVG 20010904//EN" "http://www.w3.org/TR/2001/REC-SVG-20010904/DTD/svg10.dtd">
<svg version="1.0" xmlns="http://www.w3.org/2000/svg" width="800px" height="440px" viewBox="0 0 800 440" preserveAspectRatio="xMidYMid meet">
 <g fill="#142531">
  <path d="M731 196.3 l0 -31.3 5.5 0 c5 0 5.5 0.2 5.5 2.2 0 2 0.1 2 1.9 0.4 5.1 -4.7 14.4 -4.1 20.3 1.2 9.7 8.8 8.9 31.9 -1.4 39.5 -3.7 2.8 -12.5 3.4 -16.6 1.3 l-3.1 -1.6 -0.3 9.7 -0.3 9.8 -5.7 0 -5.8 0.1 0 -31.3z m25.4 1.4 c3 -4.1 3 -15.3 0 -19.4 -2.6 -3.4 -9.1 -4.4 -11.8 -1.8 -2.4 2.4 -2.3 20 0.1 22.7 2.6 2.9 9 2.1 11.7 -1.5z"/>
  <path d="M488.2 208.3 c-7.8 -5.1 -11.2 -18.1 -7.7 -29.8 3.5 -12 15 -17.7 24.3 -11.9 l2.2 1.4 0 -10.5 0 -10.5 6.5 0 6.5 0 0 31.5 0 31.5 -6 0 c-4.6 0 -6 -0.3 -6 -1.5 0 -1.2 -0.6 -1.1 -3.2 0.5 -4.8 2.9 -11.4 2.6 -16.6 -0.7z m16.6 -8.9 c2 -1.4 2.2 -2.3 2.2 -11.4 0 -7.6 -0.4 -10.2 -1.6 -11.4 -2.2 -2.3 -8.7 -2.1 -10.9 0.4 -4.1 4.6 -3.8 18.7 0.5 22.2 2.7 2.2 6.8 2.3 9.8 0.2z"/>
  <path d="M538.2 209 c-6 -3.7 -7.2 -8.2 -7.2 -27.2 l0 -16.8 6 0 6 0 0 15.8 c0 18.3 0.6 20.2 6.8 20.2 2.1 0 4.8 -0.7 6 -1.6 2.1 -1.5 2.2 -2.1 2.2 -18 l0 -16.5 6.3 0.3 6.2 0.3 0.3 22.3 0.2 22.2 -6 0 c-5.8 0 -6 -0.1 -6 -2.7 l0 -2.7 -3 2.9 c-4.1 3.9 -12.8 4.7 -17.8 1.5z"/>
  <path d="M592.1 209.9 c-4.7 -1.9 -8.2 -5.2 -10.8 -10.2 -2.4 -4.6 -2.8 -6.6 -3.1 -16.8 -0.5 -15 1.1 -21.1 7.1 -27.3 11.8 -12.3 33.8 -6.2 36.3 10.2 l0.7 4.2 -6.1 0 -6 0 -0.6 -3.4 c-1.7 -8.7 -13.2 -10.1 -17.1 -2 -2.1 4.5 -3 18.4 -1.6 25.9 0.8 4.3 1.8 6.6 3.6 8.3 5.1 4.4 13.6 1.7 15 -4.8 0.6 -2.9 0.8 -3 6.6 -3 5.5 0 5.9 0.2 5.9 2.3 -0.1 3.2 -3.3 9.8 -6.1 12.4 -1.3 1.2 -4.1 2.9 -6.1 3.8 -4.1 1.7 -13.9 1.9 -17.7 0.4z"/>
  <path d="M637.1 209.2 c-5.2 -2.6 -7.6 -6.5 -7.5 -12.1 0.1 -9.1 5.5 -13.2 19.2 -14.6 6.6 -0.6 7.2 -0.9 7.2 -2.9 0 -3.5 -3.2 -5.8 -7.7 -5.4 -2.8 0.2 -4.1 0.9 -4.8 2.6 -0.9 1.9 -1.7 2.2 -7.3 2.2 -6.1 0 -6.3 -0.1 -5.7 -2.2 1.3 -4.7 3.1 -7 7 -9.3 10.9 -6.2 26.1 -2.6 30.1 7.2 1 2.2 1.4 7.6 1.4 16.7 0 7.4 0.4 14.6 1 16 l1 2.6 -6.6 0 c-4.7 0 -6.6 -0.4 -7 -1.4 -0.5 -1.2 -1.1 -1.1 -3.7 0.5 -4.1 2.4 -12 2.5 -16.6 0.1z m17.2 -10 c1 -0.9 1.7 -2.9 1.7 -5.4 0 -3.8 0 -3.8 -4 -3.8 -2.3 0 -5.4 0.7 -7 1.5 -2.4 1.3 -3 2.2 -3 4.9 0 2.8 0.5 3.6 2.8 4.4 3.2 1.2 7 0.5 9.5 -1.6z"/>
  <path d="M431 180 l0 -30 20.5 0 20.5 0 0 5 0 5 -14.5 0 -14.5 0 0 7 0 6.9 12.3 0.3 12.2 0.3 0.3 4.8 0.3 4.7 -12.5 0 -12.6 0 0 8 0 8 14.5 0 14.5 0 0 5 0 5 -20.5 0 -20.5 0 0 -30z"/>
  <path d="M678 187.5 l0 -22.5 5 0 c4.5 0 5 0.2 5 2.2 0 2.1 0 2.1 2.6 -0.3 3 -2.8 9.5 -3.3 11.9 -0.8 1.5 1.4 2 1.4 5.4 -0.3 4.6 -2.2 7.9 -1.7 11.3 1.9 2.2 2.4 2.3 3.1 2.6 22.4 l0.3 19.9 -5.5 0 -5.6 0 -0.2 -17.2 -0.3 -17.3 -2.5 0 -2.5 0 -0.3 17.3 -0.2 17.2 -5 0 -5 0 0 -15.2 c0 -17.9 -0.4 -20 -3.4 -19.6 -2 0.3 -2.1 0.8 -2.4 17.6 l-0.2 17.2 -5.5 0 -5.5 0 0 -22.5z"/>
 </g>
 <g fill="#717b82">
  <path d="M646.1 210.6 c0.2 -0.2 2 -0.6 3.9 -1 2.5 -0.4 3.1 -0.3 2 0.4 -1.4 0.9 -6.9 1.5 -5.9 0.6z"/>
  <path d="M742.1 208.7 c-0.1 -2.7 -0.1 -2.7 2.4 -1.1 1.4 0.9 4 2 5.8 2.4 2.4 0.6 2.7 0.8 0.9 0.9 -1.3 0.1 -3.6 -0.6 -5.2 -1.4 -2.6 -1.3 -2.9 -1.3 -3.3 0.3 -0.3 1 -0.5 0.6 -0.6 -1.1z"/>
  <path d="M508.1 208.6 c-0.1 -1.6 -0.3 -1.7 -1.8 -0.5 -1.7 1.2 -1.7 1.2 -0.1 -0.6 2 -2.1 3.2 -1.6 2.5 1.2 -0.4 1.7 -0.5 1.7 -0.6 -0.1z"/>
  <path d="M559.1 207.7 c-0.1 -1.9 -0.5 -2.6 -1.3 -2.1 -0.7 0.5 -0.8 0.3 -0.3 -0.5 1.1 -1.9 2.7 0.3 2.2 3 -0.4 2.2 -0.4 2.1 -0.6 -0.4z"/>
  <path d="M633.4 206.6 c-1.9 -1.9 -3.4 -4 -3.4 -4.7 0 -0.8 0.9 0 2 1.8 1 1.7 3.2 3.9 4.7 4.7 1.5 0.8 2.2 1.5 1.5 1.6 -0.8 0 -2.9 -1.5 -4.8 -3.4z"/>
  <path d="M657.4 208.5 c-0.5 -1.3 -0.9 -1.3 -2.3 -0.3 -1.4 1.2 -1.5 1.1 -0.2 -0.4 1.8 -2.3 2.7 -2.3 3.4 0.2 0.6 2.3 -0.1 2.7 -0.9 0.5z"/>
  <path d="M688.2 193.4 c-0.2 -14 0.1 -17.4 1.3 -18.4 1.8 -1.5 4.9 -0.9 5.1 1 0.1 1 -0.1 1.1 -0.3 0.2 -0.3 -0.7 -1.4 -1.2 -2.6 -1 -2.1 0.3 -2.2 0.8 -2.7 17.8 l-0.6 17.5 -0.2 -17.1z"/>
  <path d="M711 193 l-0.5 -17.5 -2.7 0 c-1.4 0.1 -2.4 -0.3 -2.2 -0.7 0.8 -1.3 4.1 -0.9 5.3 0.6 0.8 0.9 1.1 6.6 0.9 18.2 l-0.3 16.9 -0.5 -17.5z"/>
  <path d="M760.5 208.9 c1.1 -0.6 3.3 -2.5 4.9 -4.2 1.9 -2.1 2.4 -2.5 1.7 -1 -1.3 2.5 -5.8 6.3 -7.5 6.3 -0.6 0 -0.2 -0.5 0.9 -1.1z"/>
  <path d="M613.3 206.8 c1.6 -1.3 3.7 -3.4 4.8 -4.8 1.2 -1.4 1.7 -1.8 1.3 -1 -1.1 2.4 -4.7 6.1 -6.9 7.2 -1.1 0.5 -0.8 0 0.8 -1.4z"/>
  <path d="M584.8 205.3 c-1.8 -2.1 -3.1 -4.3 -2.5 -4.3 0.2 0 1.3 1.4 2.5 3 2.5 3.3 2.4 4.1 0 1.3z"/>
  <path d="M668.2 202 c0 -1.9 0.2 -2.7 0.5 -1.7 0.2 0.9 0.2 2.5 0 3.5 -0.3 0.9 -0.5 0.1 -0.5 -1.8z"/>
  <path d="M494.9 199.9 l-2.4 -2.1 2.5 1.6 c4.8 3.1 11.4 1.1 12.3 -3.7 0.4 -2.2 0.4 -2.2 0.6 0 0.1 2.8 -4.3 6.3 -7.9 6.3 -1.5 0 -3.8 -0.9 -5.1 -2.1z"/>
  <path d="M548.3 201.3 c0.9 -0.2 2.5 -0.2 3.5 0 0.9 0.3 0.1 0.5 -1.8 0.5 -1.9 0 -2.7 -0.2 -1.7 -0.5z"/>
  <path d="M748.3 201.3 c0.9 -0.2 2.5 -0.2 3.5 0 0.9 0.3 0.1 0.5 -1.8 0.5 -1.9 0 -2.7 -0.2 -1.7 -0.5z"/>
  <path d="M442.2 192.3 l0.2 -8.8 0.3 8.2 c0.3 6.7 0.7 8.2 2.1 8.6 1.2 0.3 1.1 0.5 -0.5 0.6 -2.2 0.1 -2.3 -0.2 -2.1 -8.6z"/>
  <path d="M743.6 199.1 c-1 -1.1 -1.6 -2.8 -1.3 -3.8 0.4 -1.7 0.5 -1.7 0.6 0.1 0 1.1 0.8 2.8 1.8 3.8 0.9 1 1.4 1.8 1.1 1.8 -0.3 0 -1.3 -0.9 -2.2 -1.9z"/>
  <path d="M531.2 196 c0 -1.9 0.2 -2.7 0.5 -1.7 0.2 0.9 0.2 2.5 0 3.5 -0.3 0.9 -0.5 0.1 -0.5 -1.8z"/>
  <path d="M621 194 c0 -1.6 -0.8 -2 -5.7 -2.3 l-5.8 -0.3 6.3 -0.2 c6 -0.2 6.2 -0.1 6.2 2.3 0 1.4 -0.2 2.5 -0.5 2.5 -0.3 0 -0.5 -0.9 -0.5 -2z"/>
  <path d="M542 180.6 c0 -12.9 -0.2 -14.5 -1.7 -14.9 -1.4 -0.4 -1.2 -0.5 0.5 -0.6 2.2 -0.1 2.2 0 2.2 14.9 0 8.3 -0.2 15 -0.5 15 -0.3 0 -0.5 -6.5 -0.5 -14.4z"/>
  <path d="M770.3 188 c0 -4.1 0.2 -5.8 0.4 -3.7 0.2 2 0.2 5.4 0 7.5 -0.2 2 -0.4 0.3 -0.4 -3.8z"/>
  <path d="M656 191.6 c0 -1 -1.3 -1.6 -3.7 -1.9 l-3.8 -0.4 4.3 -0.1 c3.6 -0.2 4.2 0.1 4.2 1.8 0 1.1 -0.2 2 -0.5 2 -0.3 0 -0.5 -0.6 -0.5 -1.4z"/>
  <path d="M578.3 187.5 c0 -2.7 0.2 -3.8 0.4 -2.2 0.2 1.5 0.2 3.7 0 5 -0.2 1.2 -0.4 0 -0.4 -2.8z"/>
  <path d="M479.3 186.5 c0 -2.7 0.2 -3.8 0.4 -2.2 0.2 1.5 0.2 3.7 0 5 -0.2 1.2 -0.4 0 -0.4 -2.8z"/>
  <path d="M632.6 187.9 c0.6 -1.1 6.4 -4.2 6.9 -3.7 0.2 0.2 -1.4 1.3 -3.6 2.5 -2.1 1.2 -3.7 1.7 -3.3 1.2z"/>
  <path d="M758 181.6 c0 -0.7 -1 -2.6 -2.1 -4.1 -1.9 -2.3 -2.8 -2.6 -6.4 -2.3 -2.4 0.1 -4.1 0 -3.8 -0.4 0.2 -0.5 2.2 -0.8 4.3 -0.8 3 0 4.3 0.6 6.4 3.1 2.3 2.7 3.4 5.9 2.1 5.9 -0.3 0 -0.5 -0.6 -0.5 -1.4z"/>
  <path d="M656.1 179.6 c0 -1.1 -0.9 -2.9 -1.8 -4 -1.7 -2 -1.6 -2 0.6 0 1.4 1.3 2.1 2.9 1.8 4 -0.4 1.8 -0.5 1.8 -0.6 0z"/>
  <path d="M494.4 176.3 c1.4 -1.7 3 -2.3 5.7 -2.3 2.1 0 4 0.3 4.3 0.8 0.2 0.4 -1.4 0.6 -3.5 0.4 -2.9 -0.3 -4.6 0.1 -6.2 1.4 l-2.2 1.9 1.9 -2.2z"/>
  <path d="M578.3 172.5 c0 -2.2 0.2 -3 0.4 -1.7 0.2 1.2 0.2 3 0 4 -0.3 0.9 -0.5 -0.1 -0.4 -2.3z"/>
  <path d="M766.7 172.7 l-1.7 -3.2 2 2.4 c1.7 2 2.6 4.1 1.8 4.1 -0.2 0 -1.1 -1.5 -2.1 -3.3z"/>
  <path d="M442.2 167.3 l0.3 -7.8 14.2 -0.3 c12.4 -0.2 14.2 -0.5 14.6 -2 0.3 -1.2 0.5 -1.1 0.6 0.6 0.1 2.2 0 2.2 -14.4 2.2 l-14.5 0 0 6.9 c0 5.8 0.3 7 1.8 7.4 1.2 0.3 1.1 0.5 -0.6 0.6 -2.2 0.1 -2.3 -0.1 -2 -7.6z"/>
  <path d="M482.8 172.5 c0.6 -1.1 2.1 -2.9 3.4 -4 2.2 -1.9 2.2 -1.9 -0.2 1 -4 4.8 -4.3 5.1 -3.2 3z"/>
  <path d="M647.3 173.3 c0.9 -0.2 2.5 -0.2 3.5 0 0.9 0.3 0.1 0.5 -1.8 0.5 -1.9 0 -2.7 -0.2 -1.7 -0.5z"/>
  <path d="M688 170.1 c0 -0.9 4.9 -5.6 5.3 -5 0.1 0.2 -1 1.6 -2.5 3.1 -1.5 1.5 -2.8 2.3 -2.8 1.9z"/>
  <path d="M610 169.3 c0 -0.5 2.4 -0.6 5.4 -0.5 5 0.4 5.5 0.2 5.9 -2 0.4 -2.1 0.4 -2 0.6 0.5 0.1 2.7 0 2.7 -5.9 2.7 -3.3 0 -6 -0.3 -6 -0.7z"/>
  <path d="M660.5 167.9 c-1.6 -1 -2.5 -1.9 -1.9 -1.9 0.7 0 2.2 0.9 3.5 2 3 2.4 2.3 2.4 -1.6 -0.1z"/>
  <path d="M741.4 168.2 c-0.4 -1.1 -1.3 -2.3 -2.3 -2.5 -1.1 -0.3 -0.9 -0.5 0.7 -0.6 1.6 -0.1 2.2 0.5 2.2 2 l0 2 2.6 -2 c1.5 -1.2 3.4 -2.1 4.3 -2 1 0 0.6 0.4 -0.9 1 -1.3 0.6 -3.3 1.7 -4.3 2.6 -1.7 1.6 -1.8 1.5 -2.3 -0.5z"/>
  <path d="M504.9 167.3 c-1.3 -1.6 -1.2 -1.7 0.3 -0.5 1.4 1.1 1.7 1 2.1 -0.5 0.4 -1.4 0.5 -1.3 0.6 0.5 0.1 2.6 -1.1 2.9 -3 0.5z"/>
  <path d="M701.8 166.9 c-1 -1 -1.4 -1.9 -0.9 -1.9 0.5 0 1.4 0.7 2.1 1.5 1 1.2 1.6 1.3 2.9 0.3 1.4 -1.2 1.4 -1.1 0.2 0.5 -1.7 2.1 -2.1 2.1 -4.3 -0.4z"/>
  <path d="M760 166.9 c-1.9 -1.1 -2.8 -1.9 -1.9 -1.9 0.9 0 2.7 0.9 4 2 2.9 2.3 2.5 2.3 -2.1 -0.1z"/>
  <path d="M619.2 160.8 c-1 -3 -1 -3.1 0.3 -1.4 1.3 1.7 2.1 4.6 1.2 4.6 -0.1 0 -0.8 -1.5 -1.5 -3.2z"/>
  <path d="M585 155.6 c2.6 -2.9 7.8 -6.1 8.7 -5.3 0.2 0.3 -0.5 0.8 -1.7 1.2 -1.2 0.4 -3.8 2.1 -5.8 3.8 -3.5 2.9 -3.5 3 -1.2 0.3z"/>
  <path d="M471 152.5 c0 -1.2 -3.2 -1.5 -20.2 -1.8 l-20.3 -0.2 20.8 -0.3 c20.1 -0.2 20.7 -0.1 20.7 1.8 0 1.1 -0.2 2 -0.5 2 -0.3 0 -0.5 -0.7 -0.5 -1.5z"/>
  <path d="M598.3 149.3 c1.5 -0.2 3.9 -0.2 5.5 0 1.5 0.2 0.2 0.4 -2.8 0.4 -3 0 -4.3 -0.2 -2.7 -0.4z"/>
 </g>
 <g fill="#8daae5">
  <path d="M204 302.5 l0 -97.5 98 0 98 0 0 97.5 0 97.5 -98 0 -98 0 0 -97.5z"/>
  <path d="M498.3 174.3 c0.9 -0.2 2.5 -0.2 3.5 0 0.9 0.3 0.1 0.5 -1.8 0.5 -1.9 0 -2.7 -0.2 -1.7 -0.5z"/>
 </g>
 <g fill="#b2afe7">
  <path d="M40 302.5 l0 -97.5 85 0 c74.9 0 85 0.2 85 1.5 0 0.8 -0.7 1.5 -1.5 1.5 -1.3 0 -1.5 11.3 -1.5 96 l0 96 -83.5 0 -83.5 0 0 -97.5z"/>
  <path d="M741.8 217.4 c0.3 -9.7 1 -12.1 2.8 -9.2 0.4 0.7 0.3 0.8 -0.4 0.4 -0.9 -0.5 -1.2 1.9 -1.2 8.8 0 5.2 -0.3 9.7 -0.7 9.9 -0.5 0.3 -0.7 -4.2 -0.5 -9.9z"/>
  <path d="M471 205.5 l0 -4.4 -14.2 -0.4 -14.3 -0.3 14.8 -0.2 14.7 -0.2 0 5 c0 2.8 -0.2 5 -0.5 5 -0.3 0 -0.5 -2 -0.5 -4.5z"/>
  <path d="M508.1 208.6 c-0.1 -1.6 -0.3 -1.7 -1.8 -0.5 -1.6 1.3 -1.7 1.2 -0.4 -0.4 1.6 -2 3.7 -0.8 2.8 1.5 -0.4 0.8 -0.6 0.6 -0.6 -0.6z"/>
  <path d="M519.4 178.5 c0 -17.6 0.2 -24.7 0.3 -15.7 0.2 9 0.2 23.4 0 32 -0.1 8.6 -0.3 1.3 -0.3 -16.3z"/>
  <path d="M668.4 189.5 c0 -7.2 0.1 -9.9 0.3 -6.2 0.2 3.7 0.2 9.6 0 13 -0.2 3.4 -0.3 0.4 -0.3 -6.8z"/>
  <path d="M742.4 188 c0 -5.2 0.1 -7.4 0.3 -4.7 0.2 2.6 0.2 6.8 0 9.5 -0.2 2.6 -0.3 0.4 -0.3 -4.8z"/>
  <path d="M558.2 180.7 l-0.2 -15.8 6.2 0.3 c4.7 0.2 6.3 0.7 6.4 1.8 0 0.9 -0.1 1 -0.3 0.3 -0.3 -0.8 -2.4 -1.3 -5.8 -1.3 l-5.4 0 -0.4 15.3 -0.3 15.2 -0.2 -15.8z"/>
  <path d="M467 176.7 c0 -1.4 -1.7 -1.7 -12.2 -2 l-12.3 -0.3 12.3 -0.2 c10.3 -0.2 12.4 0.1 12.9 1.3 0.3 0.9 0.3 1.9 -0.1 2.2 -0.3 0.4 -0.6 -0.1 -0.6 -1z"/>
  <path d="M702.4 166.8 c-1.9 -2.3 -1.9 -2.3 0.2 -0.6 1.6 1.4 2.3 1.5 3.4 0.5 1.2 -1 1.2 -0.9 0.1 0.6 -1.7 2.1 -1.4 2.1 -3.7 -0.5z"/>
  <path d="M533.8 165.3 c1.7 -0.2 4.7 -0.2 6.5 0 1.7 0.2 0.3 0.4 -3.3 0.4 -3.6 0 -5 -0.2 -3.2 -0.4z"/>
  <path d="M680.3 165.3 c1.5 -0.2 3.9 -0.2 5.5 0 1.5 0.2 0.2 0.4 -2.8 0.4 -3 0 -4.3 -0.2 -2.7 -0.4z"/>
  <path d="M733.8 165.3 c1.8 -0.2 4.5 -0.2 6 0 1.5 0.2 0 0.4 -3.3 0.4 -3.3 0 -4.5 -0.2 -2.7 -0.4z"/>
 </g>
 <g fill="#b4f4fa">
  <path d="M205 124 l0 -84 97.5 0 97.5 0 0 84 0 84 -97.5 0 -97.5 0 0 -84z"/>
 </g>
 <g fill="#fdfdfe">
  <path d="M570.4 188 c0 -12.4 0.2 -17.4 0.3 -11.2 0.2 6.1 0.2 16.3 0 22.5 -0.1 6.1 -0.3 1.1 -0.3 -11.3z"/>
  <path d="M40 124 l0 -84 84 0 84 0 0 84 0 84 -84 0 -84 0 0 -84z"/>
  <path d="M654.7 199 c0.6 -0.8 1.3 -3.3 1.6 -5.5 l0.4 -4 0.1 4.1 c0.1 2.9 -0.3 4.6 -1.5 5.5 -1.6 1.2 -1.7 1.2 -0.6 -0.1z"/>
  <path d="M507.4 188 c0 -5.2 0.1 -7.4 0.3 -4.7 0.2 2.6 0.2 6.8 0 9.5 -0.2 2.6 -0.3 0.4 -0.3 -4.8z"/>
  <path d="M467.3 179.5 c0 -2.7 0.2 -3.8 0.4 -2.2 0.2 1.5 0.2 3.7 0 5 -0.2 1.2 -0.4 0 -0.4 -2.8z"/>
  <path d="M652.2 182.3 c2.4 -0.3 3.8 -1 4.1 -2.1 0.3 -1.2 0.5 -1.1 0.6 0.6 0.1 2 -0.3 2.2 -4.1 2 l-4.3 -0.1 3.7 -0.4z"/>
  <path d="M507.4 158 c0 -6.3 0.1 -8.9 0.3 -5.7 0.2 3.1 0.2 8.3 0 11.5 -0.2 3.1 -0.3 0.5 -0.3 -5.8z"/>
  <path d="M471.3 155 c0 -3 0.2 -4.3 0.4 -2.7 0.2 1.5 0.2 3.9 0 5.5 -0.2 1.5 -0.4 0.2 -0.4 -2.8z"/>
 </g>
</svg>